<?xml version="1.0" encoding="UTF-8" standalone="no"?>
<!-- Created with Inkscape (http://www.inkscape.org/) -->

<svg
   width="167.80646mm"
   height="131.64516mm"
   viewBox="0 0 167.80646 131.64516"
   version="1.1"
   id="svg5"
   sodipodi:docname="KartKopilot2.svg"
   inkscape:export-filename="C:\Users\Usuario\OneDrive\Documentos\A-Proyectos\Logos\KK-Logo-3.png"
   inkscape:export-xdpi="96"
   inkscape:export-ydpi="96"
   inkscape:version="1.1.2 (b8e25be833, 2022-02-05)"
   xmlns:inkscape="http://www.inkscape.org/namespaces/inkscape"
   xmlns:sodipodi="http://sodipodi.sourceforge.net/DTD/sodipodi-0.dtd"
   xmlns="http://www.w3.org/2000/svg"
   xmlns:svg="http://www.w3.org/2000/svg">
  <sodipodi:namedview
     id="namedview7"
     pagecolor="#ffffff"
     bordercolor="#666666"
     borderopacity="1.0"
     inkscape:pageshadow="2"
     inkscape:pageopacity="0.0"
     inkscape:pagecheckerboard="0"
     inkscape:document-units="mm"
     showgrid="false"
     inkscape:snap-global="true"
     inkscape:zoom="0.48373316"
     inkscape:cx="-126.10258"
     inkscape:cy="419.65285"
     inkscape:window-width="1366"
     inkscape:window-height="745"
     inkscape:window-x="-8"
     inkscape:window-y="-8"
     inkscape:window-maximized="1"
     inkscape:current-layer="layer1" />
  <defs
     id="defs2" />
  <g
     inkscape:label="Capa 1"
     inkscape:groupmode="layer"
     id="layer1"
     transform="translate(-45.06568,-64.742123)">
    <g
       id="g34481"
       transform="matrix(1.1152002,0.02852393,-0.02852393,1.1152002,14.29555,28.926596)">
      <path
         style="fill:none;fill-opacity:1;stroke:#000000;stroke-width:2.64583;stroke-linecap:butt;stroke-linejoin:miter;stroke-miterlimit:4;stroke-dasharray:none;stroke-opacity:1"
         d="M 58.221155,143.20327 C 43.269521,127.84207 36.49762,110.76547 32.198026,92.969464 c 15.661023,0.49559 29.522858,1.689044 46.945134,-4.378404 3.499831,6.432636 8.926317,17.01784 16.226614,19.44835 28.494786,9.48681 48.119156,4.2775 82.205756,-0.008 2.65735,12.09084 4.05034,24.16412 -1.06092,36.14702 -43.14616,-5.91455 -75.55643,-4.17468 -118.293455,-0.97534 z"
         id="path888"
         sodipodi:nodetypes="cccscccc" />
      <path
         style="fill:none;stroke:#000000;stroke-width:2.64583;stroke-linecap:butt;stroke-linejoin:miter;stroke-miterlimit:4;stroke-dasharray:none;stroke-opacity:1"
         d="m 35.999508,68.991918 c 0,0 10.882719,-16.324704 20.67709,-22.298487 10.298763,-6.281422 19.602042,-10.75145 30.346325,-13.319406 10.430627,-2.49299 21.550147,-3.582109 32.123487,-1.788395 24.2937,4.121309 41.23607,29.573446 41.23607,29.573446 0,0 -20.08545,4.599227 -30.29968,5.775272 -10.89692,1.25465 -23.56141,-0.506764 -32.879185,1.346191 -6.449747,1.282613 -12.612057,4.499459 -16.964626,10.069778 L 82.253036,65.96507 c -16.766558,5.025683 -31.372352,4.449291 -46.253528,3.026848 z"
         id="path1797"
         sodipodi:nodetypes="csascasccc" />
      <path
         style="fill:none;stroke:#000000;stroke-width:1.47151;stroke-linecap:butt;stroke-linejoin:miter;stroke-miterlimit:4;stroke-dasharray:none;stroke-opacity:1"
         d="m 172.21184,103.88786 c -21.69669,5.39466 -37.14701,4.55867 -60.25569,3.07449 C 91.779802,105.49073 84.633251,95.461294 84.350702,86.728578 86.603993,61.890037 117.71407,81.085044 157.31609,67.815263 c 3.61516,17.016927 8.69062,21.266603 14.89575,36.072597 z"
         id="path8074"
         sodipodi:nodetypes="ccccc" />
      <path
         style="opacity:1;fill:#000000;fill-opacity:1;stroke:none;stroke-width:5.0001;stroke-linejoin:round;stroke-miterlimit:4;stroke-dasharray:none;stroke-opacity:1"
         id="path12310"
         sodipodi:type="arc"
         sodipodi:cx="59.588699"
         sodipodi:cy="116.89192"
         sodipodi:rx="2.4613259"
         sodipodi:ry="2.4613259"
         sodipodi:start="5.2333523"
         sodipodi:end="5.232916"
         sodipodi:open="true"
         sodipodi:arc-type="arc"
         d="m 60.81374,114.75712 a 2.4613259,2.4613259 0 0 1 0.9099,3.35961 2.4613259,2.4613259 0 0 1 -3.359516,0.91027 2.4613259,2.4613259 0 0 1 -0.910632,-3.35942 2.4613259,2.4613259 0 0 1 3.359317,-0.911"
         transform="rotate(-21.00539)" />
      <path
         style="opacity:1;fill:none;fill-opacity:1;stroke:#000000;stroke-width:1.32292;stroke-linejoin:round;stroke-miterlimit:4;stroke-dasharray:none;stroke-opacity:1"
         id="path12310-6"
         sodipodi:type="arc"
         sodipodi:cx="59.588699"
         sodipodi:cy="116.89192"
         sodipodi:rx="6.198782"
         sodipodi:ry="6.198782"
         sodipodi:start="5.2333523"
         sodipodi:end="5.232916"
         sodipodi:open="true"
         sodipodi:arc-type="arc"
         d="m 62.673932,111.51547 a 6.198782,6.198782 0 0 1 2.291556,8.4611 6.198782,6.198782 0 0 1 -8.460848,2.29248 6.198782,6.198782 0 0 1 -2.293402,-8.4606 6.198782,6.198782 0 0 1 8.460348,-2.29433"
         transform="rotate(-21.00539)" />
      <path
         style="fill:none;stroke:#000000;stroke-width:1.32292;stroke-linecap:butt;stroke-linejoin:miter;stroke-miterlimit:4;stroke-dasharray:none;stroke-opacity:1"
         d="m 78.428249,70.811204 c -0.470111,4.690556 -3.190828,9.717295 -0.902897,15.122789 -13.651865,4.505902 -31.499226,4.94802 -46.672856,3.184819 -1.223085,-6.982664 0.242929,-11.719718 2.816073,-16.567686 8.539622,1.168901 17.994913,4.279803 44.75968,-1.739922 z"
         id="path13913"
         sodipodi:nodetypes="ccccc" />
    </g>
  </g>
</svg>
